<svg xmlns="http://www.w3.org/2000/svg" viewBox="0 0 256 256">
  <title>Facebook logo</title>
  <path fill="#70bc4e" d="M242.738-.075H14.921C7.121-.075.797 6.246.797 14.043v227.742c0 7.798 6.324 14.118 14.124 14.118h122.601v-99.111h-33.334v-38.641h33.334V89.653c0-33.059 20.208-51.065 49.718-51.065a273.88 273.88 0 0 1 29.813 1.52v34.558h-20.404c-16.059 0-19.166 7.624-19.166 18.81v24.675h38.266l-4.976 38.641h-33.29v99.133h65.19c7.795-.013 14.112-6.325 14.124-14.118V14.065c.012-7.78-6.276-14.103-14.059-14.14Z"/>
</svg>
