<svg xmlns="http://www.w3.org/2000/svg" viewBox="0 0 1000 1000">
  <path d="M38 1.4C35 2 31.8 3 31 3.5c-.8.5-2 1-2.7 1.1-.7.1-2 1-2.9 1.8a47.6 47.6 0 0 0-19 19 7 7 0 0 0-1.8 2.9 37.6 37.6 0 0 0-3.5 11.2c-1.6 8.4-1.6 912.6 0 921a37.6 37.6 0 0 0 3.5 11.2c.1.7 1 2 1.8 2.9a47.6 47.6 0 0 0 19 19 7 7 0 0 0 2.9 1.8 37.6 37.6 0 0 0 11.2 3.5c8.4 1.6 912.6 1.6 921 0a37.6 37.6 0 0 0 11.2-3.5c.7-.1 2-1 2.9-1.8.8-.9 2-1.6 2.4-1.6.9 0 5-3.2 8.4-6.6 3.4-3.4 6.6-7.5 6.6-8.4 0-.5.7-1.6 1.6-2.4a7 7 0 0 0 1.8-2.9c.1-.6.7-2.2 1.4-3.4a25 25 0 0 0 1.9-6.8c.3-2.5 1-4.8 1.4-5 .5-.4.9-203.5.9-457.6 0-257.8-.4-456.8-.9-456.5-.4.3-1.1-1.5-1.5-4-.3-2.4-1.1-5.5-1.8-6.7-.7-1.2-1.3-2.8-1.4-3.4a7 7 0 0 0-1.8-2.9 47.6 47.6 0 0 0-19-19 7 7 0 0 0-2.9-1.8 37.6 37.6 0 0 0-11.2-3.5C951.8-.5 45.6-.3 38 1.4M.5 500c0 251.6.1 354.6.3 228.8V271.3C.6 145.3.5 248.3.5 500m470.1-350.3-40.6.9-51 .8a506 506 0 0 0-55.5 4l-6.5 1a404 404 0 0 0-31 7 279.5 279.5 0 0 0-23 8c-3 .9-5 1.9-5 2.6 0 .4-1 1.1-2.3 1.5l-2.7 1c-.3 0-2 1-4 2.3-2 1.2-4 2.2-4.8 2.2-.6 0-1.2.4-1.2 1s-.6 1-1.3 1c-.7 0-2.3 1-3.5 2-1.2 1.2-2.2 1.7-2.2 1.3 0-.4-.4-.3-.8.2-.4.6-4.8 4.2-9.7 8a190.4 190.4 0 0 0-36.5 37.9c0 .3-2 3.4-4.3 6.9a121.6 121.6 0 0 0-14.7 28c0 .3-.8 2.2-1.7 4.3a106.3 106.3 0 0 0-3.7 9.6 86 86 0 0 1-2.7 9.8l-1.3 5-1.1 5c-.4 1.4-.7 3.3-.7 4.3s-.2 1.7-.6 1.7c-.4 0-.7 1.2-.8 2.8-.1 2.5-1 8.3-2 14.2-1.8 9.5-2.6 22.7-3.9 60.5-2.5 76-1.3 246.8 2 274l1 9.8 1 8c.4 1.7.8 5 1.1 7.2a91.4 91.4 0 0 0 2.9 15.5l3.3 12.5a106.2 106.2 0 0 0 5 14.5l1.1 3.3c.6 1.6 1.1 3.5 1.1 4.3 0 .8.4 1.4 1 1.4s1 .4 1 1a80.7 80.7 0 0 0 9 18 167.4 167.4 0 0 0 20.5 28.4c4.7 5.8 22.4 22.6 23.7 22.6.4 0 1.3.6 2 1.3l5.6 4c2.3 1.5 4.2 3.2 4.2 3.7 0 .6.3 1 .8.8 1.2-.3 6.2 2.4 6.2 3.4 0 .4.3.7.8.6 1.2-.3 6.2 2.5 6.2 3.4 0 .5.4.7.9.4.5-.3 2 .4 3.5 1.5 1.4 1.1 2.6 1.8 2.6 1.5 0-.4 2 .4 14.7 6 2.1 1 4.2 1.6 4.6 1.5.4 0 2.9.7 5.5 1.8a74 74 0 0 0 9.2 3c5.6 1.2 10.2 2.3 11.5 2.7l5 .8a87.6 87.6 0 0 1 10 2c10.4 1.4 16.2 2 16.9 1.7.5 0 1.6 0 2.5.4.9.4 4.3.8 7.6 1l17 1c18.8 1.1 51.1 1.5 136 1.5 102.1.1 131.4-.5 166.4-3.5 3.5-.3 6.6-.7 7-1 .3-.1 3.5-.6 7.1-1a95 95 0 0 0 9-1.1c1.4-.3 3.7-.7 5.3-.8 1.5 0 2.7-.4 2.7-.8 0-.5.8-.8 1.8-.8 2.3 0 15.7-3.4 21-5.4 2.3-.8 4.2-1.3 4.2-1 0 .2 1-.2 2.3-1 1.2-.8 3.3-1.7 4.7-2 1.4-.2 5-1.8 8.2-3.5 3-1.6 5.9-2.7 6.2-2.4.3.4.6.1.6-.5 0-.5 2-1.8 4.5-2.8 2.5-.9 5.7-2.7 7.2-4 1.5-1.2 3-2 3.5-1.8.4.3.8.2.8-.3 0-.4 1.2-1.7 2.7-2.7 1.6-1.2 2.3-1.4 1.8-.5-.4.8.5.2 2-1.3l10.5-8.9a205.6 205.6 0 0 0 33.7-36.4l6.5-10.5a95.5 95.5 0 0 0 8.7-16.4c.4-.6 1.8-3.8 3-7a71 71 0 0 1 3.6-8.6l1.3-4.5c6.5-22.2 5.7-19.4 6.6-25l1.2-6.5c.9-4.2 1.5-8.3 1.8-12l1.1-8c.4-2.4.8-6.6 1-9.4 0-2.8.5-11.2.8-18.6 1.7-32.3 2-53.8 2-141.5-.1-98.2-.7-132.8-2.8-152.5l-1-12a128 128 0 0 0-3.1-21.9c-.9-5.2-1.1-6.3-2.3-10.9-.7-2.3-1-4.7-.6-5.2.3-.6.2-1-.3-1s-.9-.6-1-1.3c0-.6-1.2-5-2.6-9.4-1.5-4.6-2.7-8.5-2.6-8.8 0-.3-.7-1.9-1.5-3.5-.9-1.7-1.2-3-.8-3 .5 0 .2-.4-.5-.9a4 4 0 0 1-1.6-2.2 94 94 0 0 0-8.6-17.4c-.6-.4-.8-1-.5-1.6.4-.5.2-.9-.3-.9s-1.5-1.5-2.3-3.3a18 18 0 0 0-1.8-3.7c-1.2-1-7.1-8.9-7.1-9.4 0-.3-1-1.6-2.3-2.9a237.3 237.3 0 0 0-35-34.2l-7.6-5.3a40.8 40.8 0 0 0-6.9-4.2c-.5 0-1.8-1-3-2-1.2-1.2-2.2-1.8-2.2-1.6 0 .3-2.4-.7-5.4-2.3a302.9 302.9 0 0 0-28.1-11.8l-10.5-2.8a169.5 169.5 0 0 0-19-4 432.2 432.2 0 0 0-64.5-6c-33.4-.9-152.4-2.3-152.9-1.8m-67.8 62.8c-.2.2-8.9.6-19.3 1a581.4 581.4 0 0 0-32.5 2 312.7 312.7 0 0 0-30.1 4c-.4.3-2.7.7-5 1-2.4.3-6.9 1.3-9.9 2.1-3 .9-5.5 1.5-5.5 1.3L298 225c-1.4.8-2.8 1.3-3.3 1.2-.4-.1-.7.2-.7.6 0 .5-.6.9-1.3.9a95 95 0 0 0-25.5 13.7 131.6 131.6 0 0 0-31.2 34 57 57 0 0 1-3.4 6.3 39.3 39.3 0 0 0-3.8 7.8c-.1 1.1-.7 2.3-1.1 2.6-.5.3-1 1.2-1.1 2-.2.8-.6 2.2-1 3-.4 1-.9 2.3-1 3l-.8 2.9a177 177 0 0 0-6 30.6 19 19 0 0 0-.7 4.9 67 67 0 0 1-1.5 12.5 1359.3 1359.3 0 0 0-3 88.5l.1 59.5v59c-.1 31.2 1 75.7 1.9 77.2.3.5.7 3.9 1 7.6a288.5 288.5 0 0 0 3 29.8c.5 4.3 4 19.9 5.7 26a125.5 125.5 0 0 0 15.7 31c0 1.1 4.3 6.9 10.8 14.4.9 1.1 2.2 2 3 2 .6 0 1 .4 1 .9-.3 1 6.2 7 7.7 7 .5 0 2 1.3 3.2 2.8 1.3 1.4 2.3 2.3 2.3 2 0-.3 1 .4 2.4 1.6 2.9 2.7 12.6 8 12.6 7 0-.5.4-.3.8.2a49 49 0 0 0 15 6.8c.3 0 2.2.6 4 1.4 1.7.7 3.2 1 3.2.7 0-.4.6-.2 1.3.5.7.6 3.4 1.2 6 1.5 2.6.3 5 .7 5.5 1 .5.3 2.4.8 4.3 1l6.9 1c6.9 1 11.6 1.6 17.5 2.1l11 1c2.8.4 10.6 1 17.5 1.3 16.8 1 235.6.9 249.5 0a449.4 449.4 0 0 0 50.5-5.2 340.2 340.2 0 0 0 20.5-4.6l1.5-.5a123.8 123.8 0 0 0 28.3-13c2.1-1 5-3 6.3-4.2a11 11 0 0 1 3.2-2.3c.4 0 1.8-1.2 3-2.5 1.4-1.4 2.8-2.5 3.3-2.5s.9-.7.9-1.5.6-1.4 1.3-1.3c.6.2 1-.3 1-1a1 1 0 0 1 1-1.2c1.3 0 1.7-.4 7.8-8 7.8-9.8 15.6-22.7 16.5-27.4.2-1.1.8-2.2 1.4-2.4.5-.2 1-1.2 1-2.1 0-1 .3-2.1.8-2.5.4-.4.8-1.2.8-1.7s.2-1 .4-1.1l.5-1.8 2-7.4a111 111 0 0 0 4-21.6l.5-3.5c.3 0 .5-1.8 1.5-11.5 3.6-35 3.9-46.4 3.8-155v-58.5a990.2 990.2 0 0 0-3.8-97.5 133.1 133.1 0 0 0-2-15.3l-1-6.7a109 109 0 0 0-5-20.6c-.8-2-1.5-4.5-1.5-5.5s-.6-2.4-1.3-3.1a7 7 0 0 1-1.5-2.8c-1.8-9.2-21.2-36-29.7-41.1-1.6-1-2.6-1.9-2.1-1.9s-.8-1.3-2.9-3c-2-1.7-4.1-3-4.6-3-.4 0-1.4-.6-2.1-1.3a42.3 42.3 0 0 0-12.2-7.3c-1.4-.3-2.6-1-2.6-1.3 0-.8-7-3.6-8.3-3.3-.4.1-.7-.2-.7-.6 0-1.1-7.6-3.6-17-5.6a274.8 274.8 0 0 0-42-6l-10.8-1c-3-.4-10.4-.9-16.5-1.2-11.2-.5-216.4-1.3-217-.9m275.7 59.6c-.3.5-1.4.9-2.5.9-3.2 0-13.1 5.5-17.3 9.6-18.4 18.5-18.3 43.7.4 61.2 5.2 5 7 6 14.6 8.5a40.4 40.4 0 0 0 29-1c6.6-3 16.4-10.2 16.4-12 0-.5.7-1.6 1.5-2.3 2.9-2.4 6.1-10.7 7.4-19 2-12.3-4.3-28.5-14.4-37.2a63 63 0 0 0-15.8-8c-2.4-1.2-18.5-1.9-19.3-.7m-181.7 48.5-10.7.9a177 177 0 0 0-19 2 269.7 269.7 0 0 0-32.1 9c-1.2.2-2.7.9-3.3 1.5-.7.5-1.6.7-2 .3-.3-.3-.6-.1-.6.5 0 .7-.5 1.2-1.1 1.2-1.6 0-14.1 6-16.1 7.8-1 .8-1.8 1.2-1.8.8 0-.4-1.3.2-2.9 1.3-1.6 1.2-3.4 2.1-4 2.1-.6 0-1.1.4-1.1 1 0 .4-1.7 1.9-3.8 3.1-2 1.3-4.6 3.1-5.6 4.1-1.1 1-2.4 1.8-3 1.8-.5 0-7.5 6.7-15.6 14.9a179.8 179.8 0 0 0-31.6 41.1c-1 2-2.5 4.3-3.3 5.3-.8 1-1.1 1.7-.7 1.7.3 0-.1 1.5-1 3.3-1 1.7-1.8 3.4-1.9 3.7l-3.6 10.5a156.1 156.1 0 0 0-7 22.3c-.5 1.3-1.2 4.4-1.5 7-.7 6.4-1.1 8.7-1.4 8.7-1 0-1.4 34.3-.5 41.3l2.1 12.5a272.7 272.7 0 0 1 2.5 13.5l.3 1a901.5 901.5 0 0 0 5.5 18.7c-.1 0 .8 1.9 2 4.1 1 2.3 1.7 4.4 1.4 4.8-.4.3 0 .6.7.6s1 .3.7.6c-.3.3.5 2.4 1.9 4.5a265.4 265.4 0 0 0 18.5 30 247.4 247.4 0 0 0 28.7 30c.3 0 3 2 5.7 4.4 2.7 2.5 5.6 4.5 6.2 4.5.7 0 1.3.3 1.3.8 0 .4.8 1.2 1.9 1.7 9.4 5 12.1 6.7 12.1 7.5 0 .6.3 1 .8.9 1.5-.2 5.2 1.4 5.2 2.2 0 .5.5.9 1 .9.6 0 2.7.7 4.8 1.6 2 1 4.1 1.8 4.7 2 .6 0 3.5 1.2 6.5 2.4s9.3 3.3 14 4.7a51.3 51.3 0 0 0 14.3 3.5c1 0 1.7.2 1.7.6 0 .4 1.2.7 2.8.8a255.9 255.9 0 0 0 62.5 0c1.5 0 2.7-.4 2.7-.8s.8-.7 1.8-.6c1 0 2.8-.3 4.2-.7l3.5-.9a223.7 223.7 0 0 0 35-12.6 40 40 0 0 1 7.8-3.2c.4.1.7-.2.7-.8 0-.5 1.7-1.8 3.8-2.9 8.8-4.5 23-15.2 32.5-24.4 3.8-3.7 7.4-6.7 7.9-6.7s.6-.5.3-1-.2-1 .3-1c.7 0 3.2-2.9 11.4-13.5l3.9-4.8c1.7-2 2.8-3.7 2.5-3.7-.4 0 .4-1.5 1.7-3.3 2.3-3 7.9-13.5 14-26.4 1.4-2.8 2.3-5.4 2-5.7-.4-.3 0-.6.6-.6.7 0 1-.4.7-.8-.3-.5.1-2 .9-3.5s1.2-2.7 1-2.7c-.2 0 .3-2.1 1-4.8 2-6 2.5-8 3.1-11.7.3-1.6.9-4.4 1.4-6 .5-1.6 1.2-5.7 1.6-9l1-9.5a224.8 224.8 0 0 0-2-46.7c-.3-.6-.8-2.8-1-5-.3-2.2-1-5.1-1.5-6.4-.5-1.3-1-2.8-1-3.4a40 40 0 0 0-2.1-8 48 48 0 0 1-4.3-13.9c.4-.3.1-.6-.5-.6-.7 0-1.2-.4-1.2-1a145.6 145.6 0 0 0-18.5-33.5c-2.2-3.3-4.7-6.9-5.7-8a334.2 334.2 0 0 0-26.7-27.5c-1.4-1.4-3-2.7-3.6-2.9-2-.6-9.5-6.4-9.5-7.3 0-.4-.7-.8-1.5-.8s-1.5-.4-1.5-1-.5-1-1.1-1c-.6 0-2.4-1-4-2-1.6-1.2-2.9-1.8-2.9-1.5 0 .4-1.2-.3-2.6-1.4a9.6 9.6 0 0 0-4-2.1c-.8 0-1.4-.4-1.4-1s-.9-1-2-1c-1 0-2.1-.4-2.5-1-.3-.4-1.9-1.1-3.5-1.5-1.7-.4-3-1-3-1.6 0-.5-.3-.8-.8-.7-.4.1-1.7-.3-3-1-1.2-.7-2.2-1-2.2-.8a270.3 270.3 0 0 0-33.5-9.4c0-.5-34.3-2.8-34.8-2.4m-10.7 63-8 1.6-7 1.3c-6.4.9-31.9 12.2-32.8 14.7-.2.4-1 .8-1.6.8-.7 0-2.1.9-3.1 2s-2.4 2-3 2c-3 0-27.5 26.2-27.5 29.4 0 .8-.7 1.6-1.5 2-.8.3-1.5 1-1.5 1.7 0 .6-1 2.4-2 4a16.4 16.4 0 0 0-2.4 4.2 55 55 0 0 1-2.8 6.7 63 63 0 0 0-5 13.5c-.4 1.1-1 3.1-1.2 4.5l-1.6 7c-1.9 7.5-1.4 41.9.6 45.1.3.5.7 2.2 1 3.7.2 1.5.8 3.6 1.3 4.7.4 1.1 1.7 4.6 2.7 7.9 1 3.2 2.4 6.5 3.2 7.2.7.8 1 1.4.8 1.4a100 100 0 0 0 15.7 25.4c7 8 9 10 14.2 14.1 2.8 2.2 5.4 4.5 6 5.1 1.6 1.7 7.5 5.6 7.5 5 0-.4 1 .2 2.2 1.3 1.1 1.1 2.5 1.8 3 1.5.4-.3.8 0 .8.6s.4.8 1 .5c.6-.3 1-.2 1 .2 0 1 11 6 12.3 5.5.4 0 .7.2.7.7 0 1 4.5 2.3 19.4 5.6 13.6 3 43 2 50-1.7 1.1-.6 2.1-1 2.1-.8 0 .2 2.4-.2 5.3-1 2.8-.6 5.2-1.7 5.2-2.3 0-.6.3-.7.6-.4.4.4 1.9 0 3.3-.7l5.6-2.7c1.6-.8 3.3-1.8 3.7-2.4.4-.5.8-.6.8-.2 0 1 6-2.5 6-3.6 0-.4.4-.6.8-.3.5.3 1.8-.4 3-1.4 1.2-1.1 2.5-2 3-2 .3 0 2.3-1.5 4.3-3.3l7.7-6.7c2.2-1.9 3.8-3.8 3.6-4.2-.3-.4.2-.8 1-.8.9 0 1.6-.4 1.6-.9 0-.4 2-3 4.5-5.6 2.5-2.7 4.3-5 4-5.3-.2-.2.7-1.6 2-3 1.4-1.5 2.5-3 2.5-3.4 0-.4 1.3-2.8 3-5.4 1.6-2.6 2.7-5 2.4-5.5-.3-.5-.1-.9.4-.9 1.2 0 4.4-7.5 6.7-15.5a73 73 0 0 0 3.5-15c1.2 0 2-26.7.9-33.4-.6-3.6-1-7.5-1-8.6 0-1-.5-2.5-1-3.2-.7-.7-.9-1.3-.6-1.3.3 0-.3-3.1-1.3-6.9-2.2-7.6-9.8-24.1-11.2-24.1-.5 0-.7-.4-.3-1 .3-.4-.2-1.5-1-2.3-.8-.9-1.5-2-1.5-2.5 0-.6-1.3-2.4-2.9-4-1.5-1.7-2.7-3.3-2.5-3.5a161.9 161.9 0 0 0-25.8-24.7c-1.2-1.1-2.8-2-3.5-2-.7 0-1.3-.4-1.3-.9 0-2-26.7-13.6-33.5-14.6-1.1-.1-4-.8-6.5-1.5a221 221 0 0 0-36-1.3" fill="#1c844c" fill-rule="evenodd"/>
</svg>
