<svg xmlns="http://www.w3.org/2000/svg" viewBox="0 0 500 500">
  <title>Instagram logo</title>
  <path fill="#70bc4e" d="M250 191.4a59.5 59.5 0 1 0 0 119 59.5 59.5 0 0 0 0-119Zm139.2-45.8a60.3 60.3 0 0 0-34-34c-23.4-9.2-79.2-7-105.2-7s-81.8-2.2-105.3 7a60.3 60.3 0 0 0-33.9 34c-9.2 23.5-7.2 79.3-7.2 105.3s-2 81.8 7.2 105.3a60.3 60.3 0 0 0 34 34c23.4 9.2 79.2 7.1 105.2 7.1s81.8 2.2 105.3-7.2a60.3 60.3 0 0 0 34-33.9c9.2-23.4 7.1-79.3 7.1-105.3s2.1-81.7-7.2-105.3ZM250 342.4a91.5 91.5 0 1 1 0-183 91.5 91.5 0 0 1 0 183ZM345.3 177ZM446.4 1H53.6C24 1 0 25 0 54.5v392.8C0 477 24 501 53.6 501h392.8c29.6 0 53.6-24 53.6-53.6V54.5C500 24.9 476 .9 446.4.9Zm-19 323.7c-1.5 28.6-8 54-29 74.8-20.8 20.8-46.1 27.4-74.7 28.8-29.5 1.7-117.9 1.7-147.3 0-28.6-1.4-53.9-8-74.8-28.8-21-21-27.5-46.3-28.9-74.8-1.6-29.5-1.6-117.9 0-147.3 1.5-28.6 8-54 28.9-74.8 21-20.8 46.3-27.4 74.8-28.8 29.4-1.7 117.8-1.7 147.3 0 28.6 1.5 54 8 74.8 28.9 20.8 20.8 27.5 46.2 28.8 74.8a2173 2173 0 0 1 0 147.2Z"/>
</svg>
