<svg xmlns="http://www.w3.org/2000/svg" viewBox="0 0 1000 1000">
  <path d="M463.5 457c0 27.2 0 38.4.2 24.8.2-13.7.2-36 0-49.6-.1-13.6-.2-2.4-.2 24.8" fill="#14844c" fill-rule="evenodd"/>
  <path d="M38 1.4C35 2 31.8 3 31 3.5c-.8.5-2 1-2.7 1.1-.7.1-2 1-2.9 1.8a47.6 47.6 0 0 0-19 19 7 7 0 0 0-1.8 2.9 37.6 37.6 0 0 0-3.5 11.2c-1.6 8.4-1.6 912.6 0 921a37.6 37.6 0 0 0 3.5 11.2c.1.7 1 2 1.8 2.9a47.6 47.6 0 0 0 19 19 7 7 0 0 0 2.9 1.8 37.6 37.6 0 0 0 11.2 3.5c8.4 1.6 912.6 1.6 921 0a37.6 37.6 0 0 0 11.2-3.5c.7-.1 2-1 2.9-1.8.8-.9 2-1.6 2.4-1.6.9 0 5-3.2 8.4-6.6 3.4-3.4 6.6-7.5 6.6-8.4 0-.5.7-1.6 1.6-2.4a7 7 0 0 0 1.8-2.9c.1-.6.7-2.2 1.4-3.4a25 25 0 0 0 1.9-6.8c.3-2.5 1-4.8 1.4-5 .5-.4.9-203.5.9-457.6 0-257.8-.4-456.8-.9-456.5-.4.3-1.1-1.5-1.5-4-.3-2.4-1.1-5.5-1.8-6.7-.7-1.2-1.3-2.8-1.4-3.4a7 7 0 0 0-1.8-2.9 47.6 47.6 0 0 0-19-19 7 7 0 0 0-2.9-1.8 37.6 37.6 0 0 0-11.2-3.5C951.8-.5 45.6-.3 38 1.4M.5 500c0 251.6.1 354.6.3 228.8V271.3C.6 145.3.5 248.3.5 500m465.2-349.4c-.1.2-7.5.6-16.2 1a476.2 476.2 0 0 0-44 2.8c-2.9.2-6 .6-7 1-1.1.3-6 .8-11 1.2a92.6 92.6 0 0 0-16.5 1.9l-8.5 1.4a292.5 292.5 0 0 1-15.1 2.5l-6 1a466.7 466.7 0 0 0-15.9 3 36 36 0 0 0-5 1.6L317 169c-.3 0-2.3.4-4.5 1l-5.5 1.5c-4.6 1-15.3 4.5-21 6.8a24 24 0 0 1-6.8 2.1c-.2-.2-1 .2-1.9 1-.8.8-2.3 1.5-3.4 1.5-1 0-2.7.7-3.6 1.5-1 .8-2.2 1.5-2.7 1.4-.5 0-1.2.4-1.5.9-.3.5-3.8 3-7.6 5.4a132 132 0 0 0-25.4 22 79.6 79.6 0 0 0-14.6 16.6c-1.5 2.3-3.2 4.2-3.6 4.2-.5 0-.9.5-.9 1 0 1.2-3.3 6.1-6.4 9.8-1 1.2-1.6 2.2-1.3 2.2.4 0-.3 1.7-1.7 3.8-1.3 2-3.6 6.2-5 9.2a44 44 0 0 1-3.5 6c-.3.3-.7 1.2-.9 2-.2.8-1.2 3.4-2.2 5.6-1 2.3-2.2 5.4-2.6 6.8-.3 1.4-1 2.6-1.5 2.6s-.8.3-.7.8c0 .4-.5 2.7-1.2 5.2a318.7 318.7 0 0 0-2 6.8c-.1.4-.2 1-.1 1.4 0 .5-.3.8-.8.8s-.8.8-.7 1.8c.3 1.5-.5 4.9-2.1 9.2-.3.8-.8 2.4-1 3.5a267.9 267.9 0 0 0-6 40.5c-.8 8-.7 149.6.1 167a1270.4 1270.4 0 0 0 5 69.8l2.1 15.2a575.4 575.4 0 0 0 10 56.5l.7 2.5c1 2.5 4.3 15.4 4.3 16.5 0 .5.3 1.2.7 1.5.4.3.9 1.7 1.1 3 .3 1.4 1.5 5.2 2.7 8.5a69 69 0 0 1 2.4 7.7c.1.9.7 2.2 1.3 3 1.1 1.4 2.4 5 2 5.8 0 .3.6 1.9 1.5 3.5a193 193 0 0 1 10.2 21.5c-.3 0 .2.7 1 1.6.9.8 1.6 2.2 1.6 3 0 .8.4 1.4 1 1.4s1 .9 1 2 .4 2 1 2c.4 0 2.2 2.4 3.8 5.4 1.7 2.9 3.7 6 4.4 6.7l7 8.9a181 181 0 0 0 35 34.2c2.7 1.6 4.8 3.4 4.8 3.8 0 .5 1 1.2 2.3 1.6 1.2.3 3.5 1.6 5 2.7 1.7 1.1 5.2 3.1 7.8 4.5 2.7 1.3 4.9 2.8 4.9 3.3 0 .6.4.8 1 .4.4-.3 1.1 0 1.5.5.4.6 1 .8 1.5.5.5-.3 1.4 0 2.2.8.7.7 3.2 1.9 5.6 2.6 2.3.8 4.2 1.8 4.2 2.3 0 .5.4.7.8.4.5-.3 3.3.4 6.3 1.5a172 172 0 0 0 21.4 6.5l10.5 2.6c8.3 2.2 7.4 2 25.5 5.3a374 374 0 0 0 41 6.5l5 .5 16.5 1.1c13.7 1 54.6 1 64.5 0a1728.9 1728.9 0 0 1 21-2.1l8.5-1a308.2 308.2 0 0 0 36.5-7c3.9-1 7.5-1.7 8-1.8l2.3-1c.7-.5 1.6-.6 1.9-.3.3.3 1.8-.1 3.4-1 1.6-.8 3.1-1.4 3.4-1.4a50 50 0 0 0 12.2-4.1c2.9-1.2 5.8-2.2 6.5-2.3.7-.1 3.3-1.1 5.8-2.3 2.5-1 5.3-2.3 6.3-2.6 1.2-.5 1.6-1.3 1.3-2.5-.6-2-1.4-14.7-2-36.6-.5-13.5-1.2-18.6-2.6-18.6-.4 0-2.7.7-5 1.5a46 46 0 0 1-10.5 2.5l-1.7.5-8 1.8a145 145 0 0 1-9.8 2.1l-8.5 1.5c-2.8.5-7.3 1.2-10 1.5l-8.5 1.1a462.8 462.8 0 0 1-90 1 228.2 228.2 0 0 1-27.5-3.5 92 92 0 0 0-12-2.6c-1.5-.3-4-1-5.4-1.6a101.8 101.8 0 0 1-29.6-14.8 59.8 59.8 0 0 1-13.5-12.9c-1.4-1.8-3-3.9-3.7-4.6-.7-.7-1-1.5-.6-1.9.4-.3.1-.6-.4-.6-1.2 0-7.1-11.4-7.8-14.8-.2-1.2-.9-3-1.5-4.1-.6-1.2-.8-2.1-.4-2.1.3 0 .1-.6-.5-1.3-.6-.8-1.3-3.1-1.7-5.3l-1.9-10.6c-1.8-9.4-1.5-23.3.5-23.4.8 0 2 .2 2.5.5l1.8.7c.4 0 .8.2 1 .4l3.5.5c1.8.2 6.3 1.1 10 2 3.7 1 7.8 1.9 9.2 2 1.4.2 6.8 1 12 2 10 1.8 10.4 1.9 18.5 3 2.8.3 6.4.9 8 1.2l5.5.9 7.5.7 13.5 1.2c4.7.3 9.6.9 11 1.2 1.4.3 5.2.7 8.5.8l29 1 24.5.8 17.1-.7a739.6 739.6 0 0 0 59.4-4.2c10-.8 11.2-1 15.5-1.8a382.1 382.1 0 0 0 46-7 25 25 0 0 1 7.2-1c.5.3.8.1.8-.4s2.8-1.5 6.1-2.1a59.1 59.1 0 0 0 12.4-3.6c.5 0 1.6-.4 2.2-.8.7-.5 2.2-1 3.3-1.2 1-.2 3.6-1.1 5.6-2.1 2-1 4.2-1.7 5-1.7.8 0 1.4-.4 1.4-.8 0-.7 5-2.4 6.3-2 .4 0 .7-.4.7-.9s.5-1 1-1c.6 0 3.8-1.3 7-3 3.3-1.6 6-2.6 6-2.3 0 .3.8-.1 1.8-1 1-1 2.2-1.4 2.5-1 .4.3.7 0 .7-.6 0-.7.5-1 1-.6.5.3 1 .2 1-.4 0-1.3 5.5-4.2 6.4-3.4.3.4.6.1.6-.5 0-.7 2.5-2.6 5.5-4.3 3-1.7 5.8-3.5 6-4 .4-.5 1.1-.6 1.7-.3.6.4.8.3.5-.3-.3-.5.8-1.8 2.6-2.8 1.8-1 4.3-3 5.7-4.2a198.8 198.8 0 0 0 23.9-22 139 139 0 0 0 17.4-26.9c3.6-8.7 6.4-20.8 8.2-35.4l1-7.5c.4-1.6.8-6 1.1-9.5a49 49 0 0 1 1.1-8c.3-.8.7-3.3.8-5.5.3-5.7 1.4-17.5 2-21 .5-2.8 1-10.6 2-31l1-21c1.6-30 1-91.6-1-102.5l-1-7.2c-.3-2.6-.7-5.3-1-6-.2-.7-.7-3.7-1-6.6a27.4 27.4 0 0 0-2.4-9.5l-1-4.4c-.6-2-.8-3.9-.6-4.2.3-.2 0-1-.6-1.8-.6-.7-.8-1.3-.4-1.3s.3-.6-.3-1.3c-.8-1-2.2-5.7-2.7-8.7 0-.3-.4-1-.8-1.8-.5-.6-.6-1.2-.3-1.2s-.2-1.7-1-3.8c-1-2-2.1-4.8-2.7-6.2-.6-1.4-1-2.8-.9-3.3.1-.4-.3-.7-.8-.7s-1-.5-1-1a212.6 212.6 0 0 0-16.4-31.7c-1.4-1.5-2.2-3.1-1.9-3.6.3-.6.1-.7-.4-.4-.6.4-1.8-.8-2.7-2.6-.8-1.9-4.5-6.5-8-10.3a65 65 0 0 1-7.2-8.4c-.3-.8-2.8-3.4-5.5-5.8-2.7-2.3-4.6-4.2-4.2-4.2.4 0-.6-.9-2.2-1.9-1.6-1-3.9-2.7-5-3.7s-5.6-4.3-10-7.3-8.3-6-8.7-6.5c-.4-.6-.8-.7-.8-.2 0 .5-1.1-.1-2.5-1.4-1.4-1.3-2.5-2-2.5-1.6 0 .5-1.1 0-2.5-.8-1.4-1-2.5-1.4-2.5-1.1 0 .3-1.7-.3-3.9-1.4-2.1-1.1-4.1-1.7-4.5-1.4-.3.4-.6.1-.6-.5 0-.7-.9-1.2-2-1.2-1 0-2.1-.4-2.5-1-.3-.5-1.2-.7-2-.3-.8.3-1.5.1-1.5-.4s-1.2-1-2.6-1a8.4 8.4 0 0 1-3.9-1.3c-.6-.5-1.5-.7-1.8-.4-.3.3-1.2.2-1.9-.2-.7-.5-2-1-2.8-1.2a52 52 0 0 1-6.5-1.7 76.9 76.9 0 0 1-4-1l-3.5-.7a568.4 568.4 0 0 0-33-6.8l-9.5-1.4c-3.4-.6-26.5-3.6-31-4.1-10.3-1-41.2-3.5-52-4-7.9-.5-86.4-1.3-86.8-.9M387 268.5c-.3.2-3.2.7-6.4 1a37.8 37.8 0 0 0-9.5 2l-3.8.9a51 51 0 0 0-14.4 5.8c-.4.7-.8 1-.8.5 0-1-9.7 4-11.8 6-.7.7-1.8 1.3-2.3 1.3-.6 0-1.7.6-2.4 1.3l-4.6 3.7c-8.4 6.6-21.9 22-21.9 25 0 .6-.3 1-.8 1-.7 0-2.6 3.5-6.6 12a134 134 0 0 0-7 23.5c-4.9 21.6-5.5 43.8-4.5 173l.4 50 36.8.3 36.7.2v-93.2c0-78.2.4-98.1 1.8-103.3 1.9-7 4.9-15.3 5.9-16.3a54.4 54.4 0 0 1 7.6-9.4 41 41 0 0 1 31.5-14.3c8.2-.5 17.3 2 25 6.9 2.3 1.4 4.7 2.6 5.3 2.6.7 0 1 .2.7.5-.3.3 2 3.1 4.8 6.3 3 3.1 5.4 6.2 5.4 6.8 0 .5 1 2.1 2.3 3.4 1.2 1.4 2 2.7 2 3-.2.3.2 1.9.8 3.5a56.6 56.6 0 0 1 3.4 11c3 11 3.2 14.6 3.4 73.8l.1 48.7h72v-51.3c0-48 .3-60.6 1.6-66.7l.5-2.7c-.3-1.2 6.6-18.8 8.2-20.8l3.3-4.5a56.7 56.7 0 0 1 15.4-15c0-.6.3-1 .8-.8 1 .3 8.2-2.5 8.2-3.2 0-.8 0-.8 11.4-1.3 9.8-.4 17.6 1.4 25.2 5.8 5.3 3.1 13 11 15.5 15.7 1 2 2.3 4 2.9 4.3 1 .6 5 13.2 5.7 18 .2 1.7.5 45.5.6 97.5l.2 94.5 36.6.3 36.7.2.2-49.7c.5-123.6 0-152-2.7-163.3l-1-5.4a81.2 81.2 0 0 0-1.8-10.4 62.1 62.1 0 0 0-5.3-15c-.8-1.2-1.2-2.2-.9-2.2.4 0-.6-2.3-2-5l-3.8-7c-.5-1.1-1.3-2-1.8-2-.4 0-.5-.4-.2-1s.1-1-.4-1c-.6 0-1.1-.7-1.1-1.5s-1.6-3-3.5-5a96.3 96.3 0 0 0-20.5-19.7c0-.5-.5-.6-1-.3-.6.3-1.3 0-1.6-1-.6-1.5-14.6-8.9-22.4-11.7a179 179 0 0 0-19.5-5.3c-9.4-2.1-41.3-.6-47.5 2.1a5 5 0 0 1-2.3.6c-.4-.1-.7.3-.7.9 0 .5-.4.7-1 .4-2.3-1.4-23.6 9.7-31.3 16.3a210 210 0 0 0-13 13.2c-3.8 4.3-14.2 21-13.9 22.3.1.4-.3.7-.8.7-.6 0-1 .7-1 1.5s-.4 1.5-.8 1.5c-.8 0-4.4 6.7-4 7.3.3.4-3.6 4.7-4.3 4.7-.4 0-1-.8-1.2-1.8-.4-1-2-4-3.7-6.7a88.5 88.5 0 0 1-3.7-6.5c-.3-.8-1.4-2.5-2.4-3.8-1-1.3-2.7-4.3-4-6.8-1.1-2.4-2.5-4.4-3-4.4s-.9-.6-.9-1.3c0-2.6-14.5-18-21.4-22.6-7-4.7-16-10-17.2-10-.6 0-2.5-.8-4.3-1.7-1.7-.9-3.7-1.7-4.4-1.8-.7 0-1.8-.5-2.5-1-.7-.4-1.6-.5-2-.2-.3.3-1.1 0-1.9-.5-.7-.6-1.3-.9-1.3-.6 0 .4-1.8 0-4-.8-2.1-.8-4.7-1.4-5.7-1.4l-14.9-.6a101 101 0 0 0-13.5 0" fill="#1c844c" fill-rule="evenodd"/>
</svg>
