<svg xmlns="http://www.w3.org/2000/svg" viewBox="0 0 500 500">
  <path fill="#70bc4e" fill-rule="evenodd" d="M91 0A91 91 0 0 0 0 91v318a91 91 0 0 0 91 91h318a91 91 0 0 0 91-91V91a91 91 0 0 0-91-91H91ZM78.1 225.2c0 197 85 206.6 157 206.6 50.5 0 64.4-7.3 75.5-13a83 83 0 0 1 7.2-3.5v-33c-69.3 16.5-140.5 13-140.5-41.4a176 176 0 0 1 24.8 3.2c16.4 2.7 37.2 6.1 58.2 6.1h2.1c52.2 0 159.3 0 159.3-125 0-150.3-61.9-157-170-157h-4.3c-82.1 0-169.3-.1-169.3 157ZM206.3 168a28.4 28.4 0 0 0-28.4 28.4v95h-34v-95a62.5 62.5 0 0 1 107.9-43 62.5 62.5 0 0 1 108 43v95h-34.2v-95a28.4 28.4 0 1 0-56.8 0V250h-34v-53.7a28.4 28.4 0 0 0-28.5-28.4Z" clip-rule="evenodd"/>
</svg>
