<svg xmlns="http://www.w3.org/2000/svg" viewBox="0 0 500 500">
  <title>Twitter logo</title>
  <path fill="#70bc4e" d="M437.5 500h-375C28 500 0 472 0 437.5v-375C0 28 28 0 62.5 0h375C472 0 500 28 500 62.5v375c0 34.5-28 62.5-62.5 62.5Z"/>
  <path fill="#fff" d="M192 377c117.9 0 182.4-97.8 182.4-182.4l-.1-8.2c12.4-9 23.3-20.4 32-33.3a130 130 0 0 1-37 10.2 64.5 64.5 0 0 0 28.3-35.6 127.5 127.5 0 0 1-40.7 15.5 64 64 0 0 0-110.9 44c0 5 .6 9.8 1.6 14.5a182 182 0 0 1-132.1-67 64.1 64.1 0 0 0 19.9 85.7c-10.2-.4-20.1-3.1-29-8v.8c0 31 22.1 57 51.3 63a62.5 62.5 0 0 1-28.8 1 64.1 64.1 0 0 0 59.8 44.6A128.6 128.6 0 0 1 94 348.4c28.2 18 62 28.6 98.1 28.6"/>
</svg>
