<svg xmlns="http://www.w3.org/2000/svg" viewBox="0 0 3683 964">
  <title>Herbert West Landscaping logo</title>
  <linearGradient id="tentacle-gradient" x1="129.3" y1="744.3" x2="1014.8" y2="964.6" gradientUnits="userSpaceOnUse">
    <stop offset="0" stop-color="#78c953"/>
    <stop offset="1" stop-color="#4a8b2c"/>
  </linearGradient>
  <path fill="url(#tentacle-gradient)"
    d="M1413.8 500.8c-4.3-1 87.6 8.2 86 13a45.3 45.3 0 0 1-3 5.7l-10.8 2c-14.7 3-102-7-115.3 4.6-16.5 14.5 34.3 61.8 27.3 83.3a78.7 78.7 0 0 0-.7 45.5c-5.4 3.2-11.7 9.2-22.7 19.5-20.7 19.7-23.7 25-22.2 37.2 2.7 27-28.3 53.8-57.8 50.5-16.6-2.4-20.8-.7-40.7 14.6-17.8 13.7-22.7 19.8-25 33.3-2.2 13.5-6 19-20 28.1-14.7 9.5-21.3 10.6-39.4 7-18.5-3.7-25.4-2.2-48.6 9.9-21.7 11.5-28.1 16.1-30 24.6a30.4 30.4 0 0 1-8.7 14 72.2 72.2 0 0 1-56.2 3.5c-21.2-10.9-66 1.5-69.6 18.6-3.4 16.7-53.7 13.2-65-4.2-4-6.2-39.4-10.5-47.2-5.5a29.9 29.9 0 0 0-8.4 12.2c-5.5 11.9-16 11-44.1-1.9-17.3-7.6-19.6-10.3-20.3-20.9-2-16-18-26.2-33.3-21.2-5.3 1.8-21.1-1-34.6-6.5-19.9-8-24.5-11.4-24.7-19.6-.6-15.7-9-24.5-28.6-29.1a112.6 112.6 0 0 1-32.9-16c-13-9.7-14.2-11.6-10.8-21.6 5.5-18.3-1.3-40.4-19.6-62-15.5-18.4-16.3-20.6-11.9-34.7a125.9 125.9 0 0 0-9.3-77.6c-6-8.7-6-16.7-1.6-30.8 7.4-21.7 5.4-64-2.8-76.7-8.4-12.8-10.1-23.8-4.3-27.6 5.9-3.8 12-43.7 8.3-51.2a138.6 138.6 0 0 0-10.4-15.2c-5.3-7-6.3-15.5-3-28.9 5.6-21.6-.4-41.5-14-48-8.2-3.5-9.1-6.6-7-17.9 3-16.2-1.3-23.3-15.5-28.3a44.7 44.7 0 0 1-17.7-14.5c-7.7-11.9-17.4-14-32.1-7-5.2 2.8-15 2.2-20.7-1.3a54.8 54.8 0 0 0-53.7 2.7c-8.3 6-15.6 7.4-24.3 4.8-15-5-43.1 4.1-48.8 15.6-2.8 5.6-8 7.9-16.3 8-18.4-.2-40.8 12.2-46.4 24.7-3.8 8.6-7.1 11.3-16 12.2-12.5.9-29.6 16.6-36.4 32.5a54.2 54.2 0 0 1-19.5 20.4c-12 7.9-16.7 14.4-18.5 25.5a33.7 33.7 0 0 1-15 22.8c-9 5.6-12.5 12.2-14.2 26-1.4 10.7-6 21.4-11 24.7-5.3 3.4-8 12-7.5 23.6a54 54 0 0 1-8 30.2 30.1 30.1 0 0 0-6.2 22.2 74.2 74.2 0 0 1-1.8 27c-1.7 8.8-1.4 19.6 2 24.6 3 4.5 4.4 12 2.8 16.2-4 13.9 9 51.4 31 91 29.4 52.3 29 66.2-1.1 59-17.6-4.4-42.6-29.7-71.3-73.8-26.2-40-33.8-70.3-33.8-131.4.2-55.4 28.2-148 59.8-200.5 39.3-63.8 71.2-95.5 142.6-142 49.5-32.3 64.8-40 88-46.4 51.1-13 85-20.8 101-22.6 36-3.8 112.9 7.6 135.1 20 41.4 23 90.4 81.8 114.4 137.7 20.9 47.9 25 67.7 40.8 185.8 4.6 36.4 9.6 68.5 10.8 70.4a58.7 58.7 0 0 1 4.4 18.7C735 643 741.7 666 756.9 689c22.6 34.6 46.5 44.3 107.7 44.5 36.8-.3 68.8-9.3 150.3-43.2 38.8-16.1 142-89.9 179.3-128 50.1-51 94.9-110 124.3-163.5 45.4 25 100 53.8 154.2 79.4 24.8 18.8-55.2 23.2-58.9 22.5Z" />
  <path fill="#70bc4e" d="m1402.4 815.3-2-229.3c0-7.2.4-15.5 1.2-25a97 97 0 0 1 5.2-25c12.5-3.5 33.9-6.9 64-10 30-3.2 63-5.7 99-7.5a8945.5 8945.5 0 0 1 107.2-4.7c35.5-1.3 65.4-2 89.7-2l16.2 314.2c1 14.4 4 23.9 9 28.4s13.8 6.7 26.3 6.7c6.3 0 12-2.7 16.8-8 5-5.5 9.1-12 12.7-19.6 3.5-7.7 6.4-15.3 8.5-23a71 71 0 0 0 3.3-19.5l.4-265.7c-.1-10.8 4.3-16.2 13.3-16.2 4.5 0 8.6.4 12.2 1.3 3.6 1 6.7 1.4 9.4 1.4 10.8 0 18.8-7 24.1-21a98 98 0 0 0 7.8-33c0-9-2.1-14.6-6.2-16.8-4-2.3-9.7-3.4-16.9-3.4-7.2 0-14.6.2-22.2.7a339.8 339.8 0 0 0-22.3 2 2557.7 2557.7 0 0 1 1.8-104.5 1183.5 1183.5 0 0 1 3.6-57.3c1.6-19 3.7-36.5 6.3-52.6 2.6-14.4 5.6-26.1 9.1-35.1 3.6-9 6.6-16.4 9.3-22.3 2.6-5.8 5-10.8 7.3-14.8 2.2-4 3.3-7.9 3.3-11.5-.2-12.6-9.2-18.8-27.2-18.8-8 0-18.4 1-31 3.3a262.2 262.2 0 0 0-37 9.5c-12 4-22.6 8.7-31.6 14.1s-13.4 11.3-13.3 17.6c.1 12.5 1.6 31.9 4.5 58 3 26 4.6 54.8 4.8 86.3.2 23.4.2 46.3 0 68.8s-.8 42.7-1.6 60.7h-358.7c1.5-33.3 2.3-67.5 2.5-102.5a7908 7908 0 0 0-.2-101.2c.7-21.6 4.4-40 11-55.3a96 96 0 0 0 9.8-35c0-4.6-4-9.5-11.6-15a175 175 0 0 0-27.8-15.4c-10.8-5-22-9.2-33.8-12.8a104.6 104.6 0 0 0-29.7-5.4c-10 0-19.3 2.7-28.3 8a120.3 120.3 0 0 0-39.5 37.8c-4 6.3-6 10.8-6 13.5.2 7.2 3.1 13.5 9 18.9 6 5.4 12.7 11 20.4 16.9a109.2 109.2 0 0 1 20.4 20.2c6 7.6 9 16.9 9 27.6l3.2 60.7a4949 4949 0 0 1 4 157.8l.7 78.3a3006 3006 0 0 1-2.6 160.5c-2.3 50.3-3.2 98.9-2.8 145.6a48 48 0 0 0 5.6 25c3.6 5.8 10.4 8.7 20.3 8.7 40.5 0 60.5-21 60.1-63.3Zm514.4-678.5c0 11.7 6 25 17.9 39.8 11.8 14.9 25.5 38.5 41 70.8a7611 7611 0 0 1 125.8 271.1c31.6 72.9 56 132.2 73 178a1036 1036 0 0 1 34 104.6c5.5 23.8 8.4 41.1 8.5 52 0 15.2 2.2 24.9 6.3 29 4 4 10.6 6 19.6 6 5.4 0 12.6-1 21.5-2.7a174.5 174.5 0 0 0 26.3-7.4c8.5-3.2 15.9-6.8 22.1-10.8 6.3-4 9.9-8.3 10.7-12.8.8-10 5.4-23.4 13.8-40.5 8.4-17 19.3-36.4 32.6-58s28-44.5 44.3-68.8a2967.3 2967.3 0 0 1 50.9-72.1c17.3-23.9 34.4-46.6 51.1-68.1 17-21.6 32.3-40.5 45.6-56.7 15.4 14.4 31.4 37.1 47.8 68.1 16.5 31 32.3 64.5 47.4 100.5a1543.4 1543.4 0 0 1 65.4 187.5c2 7.2 6.2 13 12.6 17.5a70 70 0 0 0 21 10.1 100 100 0 0 0 23 4c7.4.5 13.4.7 17.9.7 11.8 0 19-10.3 21.5-31 1.7-10.8 9-31.4 21.8-62a3084 3084 0 0 1 118-246.1 4285 4285 0 0 1 81.6-146.4c22.1-39.6 41-71.7 56.5-96.4 15.5-24.8 28.4-44.5 38.6-59.4a433.6 433.6 0 0 0 22-34.4c4.4-8 6.6-15.3 6.5-21.6 0-3.5-3.7-8.5-11-14.8a243.4 243.4 0 0 0-53.5-35 56.7 56.7 0 0 0-21-6.8 23 23 0 0 0-18.8 8.1c-4.4 5.4-6.6 16.2-6.4 32.4 0 8-5.4 25-16.5 50.5s-25 56-41.9 91c-16.6 35.1-35.3 73-56.1 113.4a15794.8 15794.8 0 0 0-60.4 118.7L2824.1 646a1129.3 1129.3 0 0 0-36.4 78.9C2727.4 610.7 2684.8 520 2660 453c-24.9-67-37.4-108.1-37.5-123.4 0-2.7-2-5.6-6.2-8.8-4-3.1-8.8-5.6-14.2-7.4a185.6 185.6 0 0 0-16.9-4.7c-6-1.3-10.3-2-12.8-2-6.3 0-11.7 2.2-16.1 6.7-4.5 4.5-10.3 15.3-17.3 32.4a394 394 0 0 1-26.5 54.6c-12.4 22-26.4 45.9-42.1 71.5-15.4 25.6-32 52-49.7 78.9l-50.6 76.9-43.2 65.4a1038.1 1038.1 0 0 0-28.9 45.2c-9.9-18-23-44.8-39.6-80.3-16.4-35.5-34.1-75-52.9-118.7-18.8-43.6-38-88.8-57.4-135.5a4254.5 4254.5 0 0 1-52.1-133.5 1908.1 1908.1 0 0 1-38-112c-9.8-32.3-14.7-55.3-14.8-68.8-.2-15.3-8.3-22.9-24.5-22.9-5.4 0-13.7 2.7-24.9 8.1a298.4 298.4 0 0 0-64.4 42.5c-8.4 7.6-12.7 14.1-12.6 19.5Zm1639.8 651.5-244 9.4a49 49 0 0 0-16.9 2.7c-5 1.8-9.6 2.7-14.1 2.7-10.8 0-16.2-3.6-16.3-10.8 0-8 .7-21.6 2.4-40.4 1.6-19 3.2-41 4.8-66.1l4.7-81.6c1.5-29.2 2.2-57.8 2-85.7-.3-29.6-1-55.5-2-77.5a1743.2 1743.2 0 0 1 1-186.8 1763 1763 0 0 0 3-120c0-12.6 1.6-24.8 5.1-36.5 3.5-11.7 5.2-21.6 5.2-29.6-.1-10-6-17.8-17.8-23.6a69.9 69.9 0 0 0-29.7-8.8c-4.5 0-12.4 3.1-23.5 9.4a286.8 286.8 0 0 0-63 48.6c-8.5 9-12.7 15.7-12.7 20.2 0 5.4 2.4 12.4 7 21 4.5 8.5 9.4 23.7 14.5 45.8 5.2 22 10.1 52.6 15 91.7 4.8 39.1 7.5 91.5 8 157.1l1.7 190.2c.2 27.9.2 52.1 0 72.8-.3 20.7-1 38.2-1.9 52.6.2 17.1-4.2 30.4-13.1 39.8-9 9.5-13.3 17.8-13.3 25 0 2.7 1.7 7.8 5.1 15.5 3 7.6 7.4 15.3 13 22.9 5.5 7.6 11.1 14.6 17 21 6 6.2 11.6 9.3 17 9.3 16.2 0 30-3.1 41.7-9.4 3.6-1.8 7.9-3.4 12.8-4.7 5-1.4 12.8-2.3 23.6-2.7l43.8-1.4c18.4-.4 43-.6 73.5-.6 28.8 0 52.4.2 70.8.6l43.9 1.4c10.7.4 18.4.9 22.9 1.3a30 30 0 0 1 9.5 2l30.4 10.2a70.3 70.3 0 0 0 22.3 3.3c5.4 0 10.5-4.7 15.4-14.1a255.4 255.4 0 0 0 25.6-83c-.2-11.7-7.8-17.5-23.1-17.5-10 0-21.1 3.8-33.7 11.5-12.5 7.6-25 11.9-37.6 12.8Z"/>
</svg>
